<?xml version="1.0" encoding="UTF-8" standalone="no"?>
<!-- Generator: Adobe Illustrator 9.0, SVG Export Plug-In  -->

<svg
   xmlns:dc="http://purl.org/dc/elements/1.1/"
   xmlns:cc="http://creativecommons.org/ns#"
   xmlns:rdf="http://www.w3.org/1999/02/22-rdf-syntax-ns#"
   xmlns:svg="http://www.w3.org/2000/svg"
   xmlns="http://www.w3.org/2000/svg"
   xmlns:sodipodi="http://sodipodi.sourceforge.net/DTD/sodipodi-0.dtd"
   xmlns:inkscape="http://www.inkscape.org/namespaces/inkscape"
   id="svg2"
   sodipodi:docname="document-open.svg"
   xml:space="preserve"
   height="48px"
   sodipodi:version="0.32"
   width="48px"
   viewBox="0 0 48 48"
   version="1.1"
   inkscape:version="0.48.3.1 r9886"><defs
   id="defs9" /><metadata
   id="metadata19"><rdf:RDF><cc:Work
       rdf:about=""><dc:format>image/svg+xml</dc:format><dc:type
         rdf:resource="http://purl.org/dc/dcmitype/StillImage" /></cc:Work></rdf:RDF></metadata><sodipodi:namedview
   id="base"
   bordercolor="#666666"
   pagecolor="#ffffff"
   borderopacity="1.0"
   showgrid="true"
   inkscape:zoom="13.906433"
   inkscape:cx="36.949995"
   inkscape:cy="25.522731"
   inkscape:window-width="1920"
   inkscape:window-height="1027"
   inkscape:window-x="0"
   inkscape:window-y="31"
   inkscape:window-maximized="1"
   inkscape:current-layer="svg2" />
	<rect
   id="rect3315"
   style="fill:none"
   height="48.19"
   width="48.127"
   y="-.063325"
   x="-.063325" /><path
   id="path5506"
   sodipodi:nodetypes="ccccccscccccccc"
   style="stroke:#fff;stroke-width:8;fill:#fff"
   d="m6 9c-1 0-2 1-2 2v25c0 2 1 3 3 3h28c2 0 3-2 3-2l6-15c0.584-1.46 0-5-3-5h-5v-1c0-2-1-3-3-3h-13v-2c0-1-1-2-2-2h-12z" /><path
   id="path9"
   sodipodi:nodetypes="ccccccscccccccc"
   d="m6 9c-1 0-2 1-2 2v25c0 2 1 3 3 3h28c2 0 3-2 3-2l6-15c0.584-1.46 0-5-3-5h-5v-1c0-2-1-3-3-3h-13v-2c0-1-1-2-2-2h-12z"
   style="fill:#2fd0d1;fill-opacity:1" /><path
   id="path11"
   sodipodi:nodetypes="cccscccccc"
   style="fill:#fff"
   d="m9 35l24 0.1c0.6 0 1.2-0.4 1.5-0.9 0.7-1 4.8-10.6 4.8-12.5 0-0.4 0-0.7-1.3-0.7h-23c-0.4 0-0.9 0.3-1 0.9-0.1 1.5-2.9 11.239-4 12.539-0.3 0.4-1 0.561-1 0.561z" />
</svg>