<?xml version="1.0" encoding="UTF-8" standalone="no"?>
<!-- Generator: Adobe Illustrator 9.0, SVG Export Plug-In  -->

<svg
   xmlns:dc="http://purl.org/dc/elements/1.1/"
   xmlns:cc="http://creativecommons.org/ns#"
   xmlns:rdf="http://www.w3.org/1999/02/22-rdf-syntax-ns#"
   xmlns:svg="http://www.w3.org/2000/svg"
   xmlns="http://www.w3.org/2000/svg"
   xmlns:sodipodi="http://sodipodi.sourceforge.net/DTD/sodipodi-0.dtd"
   xmlns:inkscape="http://www.inkscape.org/namespaces/inkscape"
   id="svg2"
   sodipodi:docname="document-print.svg"
   xml:space="preserve"
   height="48"
   sodipodi:version="0.32"
   width="48"
   version="1.0"
   viewBox="0 0 48 48"
   inkscape:version="0.48.3.1 r9886"><defs
   id="defs17" /><metadata
   id="metadata31"><rdf:RDF><cc:Work
       rdf:about=""><dc:format>image/svg+xml</dc:format><dc:type
         rdf:resource="http://purl.org/dc/dcmitype/StillImage" /></cc:Work></rdf:RDF></metadata><sodipodi:namedview
   id="base"
   bordercolor="#666666"
   pagecolor="#ffffff"
   borderopacity="1.0"
   showgrid="true"
   inkscape:zoom="4.9166667"
   inkscape:cx="-12.508475"
   inkscape:cy="24"
   inkscape:window-width="1920"
   inkscape:window-height="1027"
   inkscape:window-x="0"
   inkscape:window-y="31"
   inkscape:window-maximized="1"
   inkscape:current-layer="svg2" />
	<rect
   id="rect3981"
   style="fill:none"
   rx="0"
   ry="0"
   height="48"
   width="48"
   y="0"
   x="0" /><g
   id="g3100"
   style="stroke:#fff;stroke-width:8;fill:#fff"><path
     id="path3102"
     sodipodi:nodetypes="ccccccccc"
     style="stroke-linejoin:round;stroke:#fff;stroke-width:8;fill:#fff"
     d="m41 42c0 0.4-0.6 1-1 1h-32c-0.4 0-1-0.6-1-1v-2c0-0.4 0.5-0.7 0.9-0.7h31.9c0.4 0 1.2 0.3 1.2 0.7v2z" /><path
     id="path3104"
     sodipodi:nodetypes="ccccccccc"
     style="stroke-linejoin:round;stroke:#fff;stroke-width:8;fill:#fff"
     d="m44 39c0 0.4-0.6 1-1 1h-38c-0.4 0-1-0.6-1-1v-14c0-0.4 0.6-1 1-1h38c0.4 0 1 0.6 1 1v14z" /><path
     id="path3106"
     sodipodi:nodetypes="ccccccc"
     style="stroke-linejoin:round;stroke:#fff;stroke-width:8;fill:#fff"
     d="m12 4c-3 0-4 2-4 4v18h32v-18c0-2-1-4-4-4h-24z" /></g><g
   id="g3095"
   style="fill:#000000;fill-opacity:1"><path
     id="path13"
     sodipodi:nodetypes="ccccccccc"
     d="m41 42c0 0.4-0.6 1-1 1h-32c-0.4 0-1-0.6-1-1v-2c0-0.4 0.5-0.7 0.9-0.7h31.9c0.4 0 1.2 0.3 1.2 0.7v2z"
     style="fill:#2fd0d1;fill-opacity:1" /><path
     id="path15"
     sodipodi:nodetypes="ccccccccc"
     d="m44 39c0 0.4-0.6 1-1 1h-38c-0.4 0-1-0.6-1-1v-14c0-0.4 0.6-1 1-1h38c0.4 0 1 0.6 1 1v14z"
     style="fill:#2fd0d1;fill-opacity:1" /><path
     id="path17"
     sodipodi:nodetypes="ccccccc"
     d="m12 4c-3 0-4 2-4 4v18h32v-18c0-2-1-4-4-4h-24z"
     style="fill:#2fd0d1;fill-opacity:1" /></g><path
   id="path19"
   sodipodi:nodetypes="ccccccc"
   style="fill:#fff"
   d="m36 27h-24v-18s0-1 1-1h22c1 0 1 1 1 1v18z" /><path
   id="path21"
   sodipodi:nodetypes="cc"
   style="stroke:#2fd0d1;stroke-width:4;fill:none;fill-opacity:1;stroke-opacity:1"
   d="m16.6 21h14.4" /><path
   id="path23"
   sodipodi:nodetypes="cc"
   style="stroke:#2fd0d1;stroke-width:4;fill:none;stroke-opacity:1"
   d="m16.539 14h14.461" />
</svg>